<?xml version="1.0" standalone="no"?>
<!DOCTYPE svg PUBLIC "-//W3C//DTD SVG 20010904//EN"
 "http://www.w3.org/TR/2001/REC-SVG-20010904/DTD/svg10.dtd">
<svg version="1.0" xmlns="http://www.w3.org/2000/svg"
 width="100.000000pt" height="100.000000pt" viewBox="0 0 100.000000 100.000000"
 preserveAspectRatio="xMidYMid meet">
<metadata>
Created by potrace 1.14, written by Peter Selinger 2001-2017
</metadata>
<g transform="translate(0.000000,100.000000) scale(0.100000,-0.100000)"
fill="#000000" stroke="none">
<path d="M188 819 c-83 -42 -79 -55 40 -128 53 -33 102 -64 109 -70 7 -6 17
-11 23 -11 27 0 4 -19 -66 -55 l-75 -39 -63 31 -64 32 -43 -21 c-24 -12 -46
-23 -48 -25 -10 -8 22 -55 80 -116 l62 -67 124 0 123 0 93 47 c50 26 94 47 97
48 3 0 16 7 30 15 14 7 86 44 160 82 168 86 218 130 226 201 5 40 -12 62 -56
74 -62 17 -111 7 -220 -47 l-106 -52 -177 66 c-98 36 -181 66 -185 66 -4 -1
-33 -14 -64 -31z"/>
<path d="M6 184 c-3 -9 -6 -29 -6 -45 0 -21 6 -30 23 -34 12 -3 236 -4 497 -3
l475 3 3 39 c2 24 -2 42 -10 47 -7 5 -230 9 -494 9 -430 0 -483 -2 -488 -16z"/>
</g>
</svg>
